<mxfile host="app.diagrams.net" agent="Mozilla/5.0 (Windows NT 10.0; Win64; x64) AppleWebKit/537.36 (KHTML, like Gecko) Chrome/138.0.0.0 Safari/537.36" version="27.2.0">
  <diagram name="Use Case - Quản lý Kanban" id="kanban-usecase">
    <mxGraphModel dx="1138" dy="408" grid="1" gridSize="10" guides="1" tooltips="1" connect="1" arrows="1" fold="1" page="1" pageScale="1" pageWidth="1169" pageHeight="827" math="0" shadow="0">
      <root>
        <mxCell id="0" />
        <mxCell id="1" parent="0" />
        
        <!-- ACTORS -->
        <mxCell id="2" value="Thành viên Dự án" style="shape=umlActor;verticalLabelPosition=bottom;verticalAlign=top;html=1;outlineConnect=0;" parent="1" vertex="1">
          <mxGeometry x="30" y="300" width="50" height="80" as="geometry" />
        </mxCell>
        
        <!-- TIÊU ĐỀ HỆ THỐNG -->
        <mxCell id="23" value="Hệ thống Bảng Kanban" style="text;html=1;strokeColor=none;fillColor=none;align=center;verticalAlign=middle;whiteSpace=wrap;rounded=0;fontSize=16;fontStyle=1;" parent="1" vertex="1">
          <mxGeometry x="400" y="70" width="280" height="30" as="geometry" />
        </mxCell>
        
        <!-- SYSTEM BOUNDARY -->
        <mxCell id="3" value="" style="rounded=1;whiteSpace=wrap;html=1;strokeWidth=2;fillColor=none;dashed=0;strokeColor=#000000;fontStyle=1;fontSize=14;" parent="1" vertex="1">
          <mxGeometry x="120" y="100" width="750" height="550" as="geometry" />
        </mxCell>
        
        <!-- USE CASE CHÍNH - CỘT TRÁI -->
        <mxCell id="4" value="Xem Bảng Kanban" style="ellipse;whiteSpace=wrap;html=1;fillColor=#dae8fc;strokeColor=#6c8ebf;" parent="1" vertex="1">
          <mxGeometry x="160" y="140" width="140" height="70" as="geometry" />
        </mxCell>
        <mxCell id="5" value="Tạo Công việc" style="ellipse;whiteSpace=wrap;html=1;fillColor=#dae8fc;strokeColor=#6c8ebf;" parent="1" vertex="1">
          <mxGeometry x="160" y="230" width="140" height="70" as="geometry" />
        </mxCell>
        <mxCell id="6" value="Sửa Công việc" style="ellipse;whiteSpace=wrap;html=1;fillColor=#dae8fc;strokeColor=#6c8ebf;" parent="1" vertex="1">
          <mxGeometry x="160" y="320" width="140" height="70" as="geometry" />
        </mxCell>
        <mxCell id="7" value="Xóa Công việc" style="ellipse;whiteSpace=wrap;html=1;fillColor=#dae8fc;strokeColor=#6c8ebf;" parent="1" vertex="1">
          <mxGeometry x="160" y="410" width="140" height="70" as="geometry" />
        </mxCell>
        <mxCell id="8" value="Di chuyển Công việc" style="ellipse;whiteSpace=wrap;html=1;fillColor=#dae8fc;strokeColor=#6c8ebf;" parent="1" vertex="1">
          <mxGeometry x="160" y="500" width="140" height="70" as="geometry" />
        </mxCell>
        <mxCell id="9" value="Ghim / Bỏ ghim" style="ellipse;whiteSpace=wrap;html=1;fillColor=#dae8fc;strokeColor=#6c8ebf;" parent="1" vertex="1">
          <mxGeometry x="160" y="590" width="140" height="70" as="geometry" />
        </mxCell>
        
        <!-- USE CASE HỖ TRỢ - CỘT GIỮA -->
        <mxCell id="10" value="Thiết lập chi tiết" style="ellipse;whiteSpace=wrap;html=1;fillColor=#e1d5e7;strokeColor=#9673a6;" parent="1" vertex="1">
          <mxGeometry x="420" y="200" width="140" height="70" as="geometry" />
        </mxCell>
        <mxCell id="11" value="Kiểm tra quyền hạn" style="ellipse;whiteSpace=wrap;html=1;fillColor=#e1d5e7;strokeColor=#9673a6;" parent="1" vertex="1">
          <mxGeometry x="420" y="300" width="140" height="70" as="geometry" />
        </mxCell>
        <mxCell id="12" value="Cập nhật trạng thái" style="ellipse;whiteSpace=wrap;html=1;fillColor=#e1d5e7;strokeColor=#9673a6;" parent="1" vertex="1">
          <mxGeometry x="420" y="480" width="140" height="70" as="geometry" />
        </mxCell>
        
        <!-- USE CASE MỞ RỘNG - CỘT PHẢI -->
        <mxCell id="13" value="Xem dưới dạng Gantt" style="ellipse;whiteSpace=wrap;html=1;fillColor=#fff2cc;strokeColor=#d6b656;" parent="1" vertex="1">
          <mxGeometry x="680" y="140" width="140" height="70" as="geometry" />
        </mxCell>
        <mxCell id="14" value="Lọc công việc" style="ellipse;whiteSpace=wrap;html=1;fillColor=#fff2cc;strokeColor=#d6b656;" parent="1" vertex="1">
          <mxGeometry x="680" y="230" width="140" height="70" as="geometry" />
        </mxCell>
        <mxCell id="15" value="Tìm kiếm công việc" style="ellipse;whiteSpace=wrap;html=1;fillColor=#fff2cc;strokeColor=#d6b656;" parent="1" vertex="1">
          <mxGeometry x="680" y="320" width="140" height="70" as="geometry" />
        </mxCell>
        
        <!-- KẾT NỐI ACTOR → USE CASE CHÍNH -->
        <mxCell id="16" value="" style="endArrow=none;html=1;rounded=0;" parent="1" source="2" target="4" edge="1">
          <mxGeometry width="50" height="50" relative="1" as="geometry">
            <mxPoint x="80" y="340" as="sourcePoint" />
            <mxPoint x="160" y="175" as="targetPoint" />
          </mxGeometry>
        </mxCell>
        <mxCell id="17" value="" style="endArrow=none;html=1;rounded=0;" parent="1" source="2" target="5" edge="1">
          <mxGeometry width="50" height="50" relative="1" as="geometry">
            <mxPoint x="80" y="340" as="sourcePoint" />
            <mxPoint x="160" y="265" as="targetPoint" />
          </mxGeometry>
        </mxCell>
        <mxCell id="18" value="" style="endArrow=none;html=1;rounded=0;" parent="1" source="2" target="6" edge="1">
          <mxGeometry width="50" height="50" relative="1" as="geometry">
            <mxPoint x="80" y="340" as="sourcePoint" />
            <mxPoint x="160" y="355" as="targetPoint" />
          </mxGeometry>
        </mxCell>
        <mxCell id="19" value="" style="endArrow=none;html=1;rounded=0;" parent="1" source="2" target="7" edge="1">
          <mxGeometry width="50" height="50" relative="1" as="geometry">
            <mxPoint x="80" y="340" as="sourcePoint" />
            <mxPoint x="160" y="445" as="targetPoint" />
          </mxGeometry>
        </mxCell>
        <mxCell id="20" value="" style="endArrow=none;html=1;rounded=0;" parent="1" source="2" target="8" edge="1">
          <mxGeometry width="50" height="50" relative="1" as="geometry">
            <mxPoint x="80" y="340" as="sourcePoint" />
            <mxPoint x="160" y="535" as="targetPoint" />
          </mxGeometry>
        </mxCell>
        <mxCell id="21" value="" style="endArrow=none;html=1;rounded=0;" parent="1" source="2" target="9" edge="1">
          <mxGeometry width="50" height="50" relative="1" as="geometry">
            <mxPoint x="80" y="340" as="sourcePoint" />
            <mxPoint x="160" y="625" as="targetPoint" />
          </mxGeometry>
        </mxCell>
        
        <!-- INCLUDE RELATIONSHIPS -->
        <mxCell id="22" value="&lt;&lt;include&gt;&gt;" style="endArrow=open;endSize=12;dashed=1;html=1;rounded=0;labelPosition=center;verticalLabelPosition=middle;align=center;verticalAlign=middle;" parent="1" source="5" target="10" edge="1">
          <mxGeometry x="0.1" y="10" width="100" height="100" relative="1" as="geometry">
            <mxPoint x="300" y="265" as="sourcePoint" />
            <mxPoint x="420" y="235" as="targetPoint" />
            <mxPoint as="offset" />
          </mxGeometry>
        </mxCell>
        <mxCell id="24" value="&lt;&lt;include&gt;&gt;" style="endArrow=open;endSize=12;dashed=1;html=1;rounded=0;labelPosition=center;verticalLabelPosition=middle;align=center;verticalAlign=middle;" parent="1" source="6" target="11" edge="1">
          <mxGeometry x="0.1" y="10" width="100" height="100" relative="1" as="geometry">
            <mxPoint x="300" y="355" as="sourcePoint" />
            <mxPoint x="420" y="335" as="targetPoint" />
            <mxPoint as="offset" />
          </mxGeometry>
        </mxCell>
        <mxCell id="25" value="&lt;&lt;include&gt;&gt;" style="endArrow=open;endSize=12;dashed=1;html=1;rounded=0;labelPosition=center;verticalLabelPosition=middle;align=center;verticalAlign=middle;" parent="1" source="7" target="11" edge="1">
          <mxGeometry x="0.1" y="10" width="100" height="100" relative="1" as="geometry">
            <mxPoint x="300" y="445" as="sourcePoint" />
            <mxPoint x="420" y="335" as="targetPoint" />
            <mxPoint as="offset" />
          </mxGeometry>
        </mxCell>
        <mxCell id="26" value="&lt;&lt;include&gt;&gt;" style="endArrow=open;endSize=12;dashed=1;html=1;rounded=0;labelPosition=center;verticalLabelPosition=middle;align=center;verticalAlign=middle;" parent="1" source="8" target="12" edge="1">
          <mxGeometry x="0.1" y="10" width="100" height="100" relative="1" as="geometry">
            <mxPoint x="300" y="535" as="sourcePoint" />
            <mxPoint x="420" y="515" as="targetPoint" />
            <mxPoint as="offset" />
          </mxGeometry>
        </mxCell>
        
        <!-- EXTEND RELATIONSHIPS -->
        <mxCell id="27" value="&lt;&lt;extend&gt;&gt;" style="endArrow=open;endSize=12;dashed=1;html=1;rounded=0;labelPosition=center;verticalLabelPosition=middle;align=center;verticalAlign=middle;" parent="1" source="13" target="4" edge="1">
          <mxGeometry x="-0.1" y="-10" width="100" height="100" relative="1" as="geometry">
            <mxPoint x="680" y="175" as="sourcePoint" />
            <mxPoint x="300" y="175" as="targetPoint" />
            <mxPoint as="offset" />
          </mxGeometry>
        </mxCell>
        <mxCell id="28" value="&lt;&lt;extend&gt;&gt;" style="endArrow=open;endSize=12;dashed=1;html=1;rounded=0;labelPosition=center;verticalLabelPosition=middle;align=center;verticalAlign=middle;" parent="1" source="14" target="4" edge="1">
          <mxGeometry x="-0.1" y="-10" width="100" height="100" relative="1" as="geometry">
            <mxPoint x="680" y="265" as="sourcePoint" />
            <mxPoint x="300" y="175" as="targetPoint" />
            <mxPoint as="offset" />
          </mxGeometry>
        </mxCell>
        <mxCell id="29" value="&lt;&lt;extend&gt;&gt;" style="endArrow=open;endSize=12;dashed=1;html=1;rounded=0;labelPosition=center;verticalLabelPosition=middle;align=center;verticalAlign=middle;" parent="1" source="15" target="4" edge="1">
          <mxGeometry x="-0.1" y="-10" width="100" height="100" relative="1" as="geometry">
            <mxPoint x="680" y="355" as="sourcePoint" />
            <mxPoint x="300" y="175" as="targetPoint" />
            <mxPoint as="offset" />
          </mxGeometry>
        </mxCell>
        
      </root>
    </mxGraphModel>
  </diagram>
</mxfile>
            <mxPoint x="120" y="440" as="sourcePoint" />
            <mxPoint x="250" y="695" as="targetPoint" />
          </mxGeometry>
        </mxCell>
        
        <!-- Include Relationships -->
        <mxCell id="rel-include-create-details" value="&amp;lt;&amp;lt;include&amp;gt;&amp;gt;" style="endArrow=open;endSize=12;dashed=1;html=1;rounded=0;" parent="1" source="uc-create-task" target="uc-set-details" edge="1">
          <mxGeometry width="100" height="100" relative="1" as="geometry">
            <mxPoint x="450" y="295" as="sourcePoint" />
            <mxPoint x="650" y="295" as="targetPoint" />
          </mxGeometry>
        </mxCell>
        
        <mxCell id="rel-include-edit-details" value="&amp;lt;&amp;lt;include&amp;gt;&amp;gt;" style="endArrow=open;endSize=12;dashed=1;html=1;rounded=0;" parent="1" source="uc-edit-task" target="uc-set-details" edge="1">
          <mxGeometry width="100" height="100" relative="1" as="geometry">
            <mxPoint x="450" y="395" as="sourcePoint" />
            <mxPoint x="650" y="295" as="targetPoint" />
          </mxGeometry>
        </mxCell>
        
        <mxCell id="rel-include-edit-permission" value="&amp;lt;&amp;lt;include&amp;gt;&amp;gt;" style="endArrow=open;endSize=12;dashed=1;html=1;rounded=0;" parent="1" source="uc-edit-task" target="uc-check-permission" edge="1">
          <mxGeometry width="100" height="100" relative="1" as="geometry">
            <mxPoint x="450" y="395" as="sourcePoint" />
            <mxPoint x="650" y="395" as="targetPoint" />
          </mxGeometry>
        </mxCell>
        
        <mxCell id="rel-include-delete-permission" value="&lt;div&gt;&amp;lt;&amp;lt;include&amp;gt;&amp;gt;&lt;/div&gt;" style="endArrow=open;endSize=12;dashed=1;html=1;rounded=0;" parent="1" source="uc-delete-task" target="uc-check-permission" edge="1">
          <mxGeometry width="100" height="100" relative="1" as="geometry">
            <mxPoint x="450" y="495" as="sourcePoint" />
            <mxPoint x="650" y="395" as="targetPoint" />
          </mxGeometry>
        </mxCell>
        
        <mxCell id="rel-include-move-permission" value="&lt;div&gt;&amp;lt;&amp;lt;include&amp;gt;&amp;gt;&lt;/div&gt;" style="endArrow=open;endSize=12;dashed=1;html=1;rounded=0;" parent="1" source="uc-move-task" target="uc-check-permission" edge="1">
          <mxGeometry width="100" height="100" relative="1" as="geometry">
            <mxPoint x="450" y="595" as="sourcePoint" />
            <mxPoint x="650" y="395" as="targetPoint" />
          </mxGeometry>
        </mxCell>
        
        <mxCell id="rel-include-move-status" value="&lt;div&gt;&amp;lt;&amp;lt;include&amp;gt;&amp;gt;&lt;/div&gt;" style="endArrow=open;endSize=12;dashed=1;html=1;rounded=0;" parent="1" source="uc-move-task" target="uc-update-status" edge="1">
          <mxGeometry width="100" height="100" relative="1" as="geometry">
            <mxPoint x="450" y="595" as="sourcePoint" />
            <mxPoint x="650" y="635" as="targetPoint" />
          </mxGeometry>
        </mxCell>
        
        <mxCell id="rel-include-pin-status" value="&lt;div&gt;&amp;lt;&amp;lt;include&amp;gt;&amp;gt;&lt;/div&gt;" style="endArrow=open;endSize=12;dashed=1;html=1;rounded=0;" parent="1" source="uc-pin-task" target="uc-update-status" edge="1">
          <mxGeometry width="100" height="100" relative="1" as="geometry">
            <mxPoint x="450" y="695" as="sourcePoint" />
            <mxPoint x="650" y="635" as="targetPoint" />
          </mxGeometry>
        </mxCell>
        
        <!-- Extend Relationship -->
        <mxCell id="rel-extend-gantt" value="&lt;div&gt;&amp;lt;&amp;lt;extend&amp;gt;&amp;gt;&lt;/div&gt;" style="endArrow=open;endSize=12;dashed=1;html=1;rounded=0;" parent="1" source="uc-view-gantt" target="uc-view-board" edge="1">
          <mxGeometry width="100" height="100" relative="1" as="geometry">
            <mxPoint x="300" y="195" as="sourcePoint" />
            <mxPoint x="450" y="195" as="targetPoint" />
          </mxGeometry>
        </mxCell>
        
      </root>
    </mxGraphModel>
  </diagram>
</mxfile>
